<?xml version="1.0" encoding="utf-8"?>
<!-- Generator: Adobe Illustrator 23.0.2, SVG Export Plug-In . SVG Version: 6.00 Build 0)  -->
<svg version="1.1" id="Layer_1" xmlns="http://www.w3.org/2000/svg" xmlns:xlink="http://www.w3.org/1999/xlink" x="0px" y="0px"
	 viewBox="0 0 183.2 183.2" style="enable-background:new 0 0 183.2 183.2;" xml:space="preserve">
<style type="text/css">
	.st0{fill:#EA3C3C;}
	.st1{fill:#FFFFFF;}
</style>
<rect y="0" class="st0" width="183.2" height="183.2"/>
<path class="st1" d="M84.4,43c-0.5,0-1.1,0-1.6,0c-26.7,0-48.4,21.7-48.4,48.4s21.7,48.4,48.4,48.4c0.8,0,1.6,0,2.3-0.1L36.5,91
	L84.4,43z"/>
<path class="st1" d="M87.8,152.2c0.7,0,1.3,0.1,2,0.1c33.8,0,61.2-27.4,61.2-61.2s-27.4-61.2-61.2-61.2c-1,0-2,0-3,0.1l61.6,61.6
	L87.8,152.2z"/>
<path class="st1" d="M85.5,126.3c0.4,0,0.8,0,1.2,0c19.4,0,35.1-15.9,35.1-35.6S106,55.2,86.7,55.2c-0.6,0-1.1,0-1.7,0L120.3,91
	L85.5,126.3z"/>
<path class="st1" d="M86.4,67.4c-0.3,0-0.5,0-0.8,0c-13.8,0-24.9,10.7-24.9,24s11.2,24,24.9,24c0.4,0,0.8,0,1.2,0L61.7,91.2
	L86.4,67.4z"/>
</svg>
